<?xml version="1.0" encoding="UTF-8" standalone="no"?><svg xmlns="http://www.w3.org/2000/svg" xmlns:xlink="http://www.w3.org/1999/xlink" contentStyleType="text/css" height="1471px" preserveAspectRatio="none" style="width:526px;height:1471px;background:#FFFFFF;" version="1.1" viewBox="0 0 526 1471" width="526px" zoomAndPan="magnify"><defs/><g><rect fill="#F1F1F1" height="33.9688" rx="12.5" ry="12.5" style="stroke:#181818;stroke-width:0.5;" width="198" x="169.25" y="11"/><text fill="#000000" font-family="sans-serif" font-size="12" lengthAdjust="spacing" textLength="178" x="179.25" y="32.1387">Create server pipe/config file</text><rect fill="#555555" height="6" rx="2.5" ry="2.5" style="stroke:#555555;stroke-width:1.0;" width="504.5" x="11" y="64.9688"/><rect fill="#F1F1F1" height="33.9688" rx="12.5" ry="12.5" style="stroke:#181818;stroke-width:0.5;" width="52" x="100" y="143.4531"/><text fill="#000000" font-family="sans-serif" font-size="12" lengthAdjust="spacing" textLength="32" x="110" y="164.5918">Menu</text><polygon fill="#F1F1F1" points="97,205.9063,155,205.9063,167,217.9063,155,229.9063,97,229.9063,85,217.9063,97,205.9063" style="stroke:#181818;stroke-width:0.5;"/><text fill="#000000" font-family="sans-serif" font-size="11" lengthAdjust="spacing" textLength="58" x="97" y="221.7144">User input</text><text fill="#000000" font-family="sans-serif" font-size="11" lengthAdjust="spacing" textLength="7" x="78" y="215.312">1</text><text fill="#000000" font-family="sans-serif" font-size="11" lengthAdjust="spacing" textLength="7" x="167" y="215.312">2</text><rect fill="#F1F1F1" height="47.9375" rx="12.5" ry="12.5" style="stroke:#181818;stroke-width:0.5;" width="104" x="23" y="239.9063"/><text fill="#000000" font-family="sans-serif" font-size="12" lengthAdjust="spacing" textLength="51" x="33" y="261.0449">SIGUSR1</text><text fill="#000000" font-family="sans-serif" font-size="12" lengthAdjust="spacing" textLength="84" x="33" y="275.0137">start_game=1</text><rect fill="#F1F1F1" height="33.9688" rx="12.5" ry="12.5" style="stroke:#181818;stroke-width:0.5;" width="37" x="158.5" y="239.9063"/><text fill="#000000" font-family="sans-serif" font-size="12" lengthAdjust="spacing" textLength="17" x="168.5" y="261.0449">Kill</text><ellipse cx="177" cy="318.875" fill="none" rx="10" ry="10" style="stroke:#222222;stroke-width:1.5;"/><line style="stroke:#222222;stroke-width:2.5;" x1="170.8128" x2="183.1872" y1="312.6878" y2="325.0622"/><line style="stroke:#222222;stroke-width:2.5;" x1="183.1872" x2="170.8128" y1="312.6878" y2="325.0622"/><rect fill="#F1F1F1" height="33.9688" rx="12.5" ry="12.5" style="stroke:#181818;stroke-width:0.5;" width="125" x="304" y="134.9688"/><text fill="#000000" font-family="sans-serif" font-size="12" lengthAdjust="spacing" textLength="105" x="314" y="156.1074">Read server pipe</text><rect fill="#F1F1F1" height="33.9688" rx="12.5" ry="12.5" style="stroke:#181818;stroke-width:0.5;" width="115" x="309" y="197.4219"/><text fill="#000000" font-family="sans-serif" font-size="12" lengthAdjust="spacing" textLength="95" x="319" y="218.5605">handleMessage</text><line style="stroke:#181818;stroke-width:1.5;" x1="296" x2="429" y1="266.3906" y2="266.3906"/><rect fill="#F1F1F1" height="33.9688" rx="12.5" ry="12.5" style="stroke:#181818;stroke-width:0.5;" width="97" x="247.5" y="287.8906"/><text fill="#000000" font-family="sans-serif" font-size="12" lengthAdjust="spacing" textLength="77" x="257.5" y="309.0293">CONNECTION</text><rect fill="#F1F1F1" height="33.9688" rx="12.5" ry="12.5" style="stroke:#181818;stroke-width:0.5;" width="113" x="372.5" y="287.8906"/><text fill="#000000" font-family="sans-serif" font-size="12" lengthAdjust="spacing" textLength="93" x="382.5" y="309.0293">DECONNECTION</text><line style="stroke:#181818;stroke-width:1.5;" x1="296" x2="429" y1="341.8594" y2="341.8594"/><polygon fill="#F1F1F1" points="366.5,90.9688,378.5,102.9688,366.5,114.9688,354.5,102.9688,366.5,90.9688" style="stroke:#181818;stroke-width:0.5;"/><polygon fill="#F1F1F1" points="334.5,361.8594,398.5,361.8594,410.5,373.8594,398.5,385.8594,334.5,385.8594,322.5,373.8594,334.5,361.8594" style="stroke:#181818;stroke-width:0.5;"/><text fill="#000000" font-family="sans-serif" font-size="11" lengthAdjust="spacing" textLength="64" x="334.5" y="377.6675">start_game</text><text fill="#000000" font-family="sans-serif" font-size="11" lengthAdjust="spacing" textLength="7" x="410.5" y="371.2651">0</text><rect fill="#555555" height="6" rx="2.5" ry="2.5" style="stroke:#555555;stroke-width:1.0;" width="504.5" x="11" y="418.6641"/><rect fill="#F1F1F1" height="33.9688" rx="12.5" ry="12.5" style="stroke:#181818;stroke-width:0.5;" width="84" x="226.25" y="444.6641"/><text fill="#000000" font-family="sans-serif" font-size="12" lengthAdjust="spacing" textLength="64" x="236.25" y="465.8027">Chose spy</text><rect fill="#F1F1F1" height="33.9688" rx="12.5" ry="12.5" style="stroke:#181818;stroke-width:0.5;" width="93" x="221.75" y="498.6328"/><text fill="#000000" font-family="sans-serif" font-size="12" lengthAdjust="spacing" textLength="73" x="231.75" y="519.7715">Chose word</text><rect fill="#F1F1F1" height="33.9688" rx="12.5" ry="12.5" style="stroke:#181818;stroke-width:0.5;" width="127" x="204.75" y="596.6016"/><text fill="#000000" font-family="sans-serif" font-size="12" lengthAdjust="spacing" textLength="107" x="214.75" y="617.7402">Chose first player</text><polygon fill="#F1F1F1" points="268.25,552.6016,280.25,564.6016,268.25,576.6016,256.25,564.6016,268.25,552.6016" style="stroke:#181818;stroke-width:0.5;"/><polygon fill="#F1F1F1" points="247.75,650.5703,288.75,650.5703,300.75,662.5703,288.75,674.5703,247.75,674.5703,235.75,662.5703,247.75,650.5703" style="stroke:#181818;stroke-width:0.5;"/><text fill="#000000" font-family="sans-serif" font-size="11" lengthAdjust="spacing" textLength="41" x="247.75" y="666.3784">chosen</text><text fill="#000000" font-family="sans-serif" font-size="11" lengthAdjust="spacing" textLength="33" x="300.75" y="659.9761">is spy</text><rect fill="#F1F1F1" height="33.9688" rx="12.5" ry="12.5" style="stroke:#181818;stroke-width:0.5;" width="151" x="192.75" y="715.9692"/><text fill="#000000" font-family="sans-serif" font-size="12" lengthAdjust="spacing" textLength="131" x="202.75" y="737.1079">token=first player PID</text><rect fill="#555555" height="6" rx="2.5" ry="2.5" style="stroke:#555555;stroke-width:1.0;" width="354" x="91.25" y="769.938"/><rect fill="#F1F1F1" height="33.9688" rx="12.5" ry="12.5" style="stroke:#181818;stroke-width:0.5;" width="112" x="120.75" y="795.938"/><text fill="#000000" font-family="sans-serif" font-size="12" lengthAdjust="spacing" textLength="92" x="130.75" y="817.0767">Start timer : init</text><rect fill="#F1F1F1" height="33.9688" rx="12.5" ry="12.5" style="stroke:#181818;stroke-width:0.5;" width="143" x="105.25" y="923.7114"/><text fill="#000000" font-family="sans-serif" font-size="12" lengthAdjust="spacing" textLength="123" x="115.25" y="944.8501">elapsed = time - init</text><polygon fill="#F1F1F1" points="176.75,853.3247,188.75,865.3247,176.75,877.3247,164.75,865.3247,176.75,853.3247" style="stroke:#181818;stroke-width:0.5;"/><polygon fill="#F1F1F1" points="153.75,991.0669,199.75,991.0669,211.75,1003.0669,199.75,1015.0669,153.75,1015.0669,141.75,1003.0669,153.75,991.0669" style="stroke:#181818;stroke-width:0.5;"/><text fill="#000000" font-family="sans-serif" font-size="11" lengthAdjust="spacing" textLength="46" x="153.75" y="1006.875">elapsed</text><text fill="#000000" font-family="sans-serif" font-size="11" lengthAdjust="spacing" textLength="43" x="211.75" y="1000.4727">&lt; timer</text><rect fill="#F1F1F1" height="47.9375" rx="12.5" ry="12.5" style="stroke:#181818;stroke-width:0.5;" width="105" x="124.25" y="1062.8716"/><text fill="#000000" font-family="sans-serif" font-size="12" lengthAdjust="spacing" textLength="52" x="134.25" y="1084.0103">SIGUSR2</text><text fill="#000000" font-family="sans-serif" font-size="12" lengthAdjust="spacing" textLength="85" x="134.25" y="1097.979">start_game=0</text><rect fill="#F1F1F1" height="33.9688" rx="12.5" ry="12.5" style="stroke:#181818;stroke-width:0.5;" width="107" x="300.25" y="869.7427"/><text fill="#000000" font-family="sans-serif" font-size="12" lengthAdjust="spacing" textLength="87" x="310.25" y="890.8813">token ask to X</text><rect fill="#F1F1F1" height="33.9688" rx="12.5" ry="12.5" style="stroke:#181818;stroke-width:0.5;" width="76" x="315.75" y="937.0981"/><text fill="#000000" font-family="sans-serif" font-size="12" lengthAdjust="spacing" textLength="56" x="325.75" y="958.2368">X answer</text><rect fill="#F1F1F1" height="33.9688" rx="12.5" ry="12.5" style="stroke:#181818;stroke-width:0.5;" width="102" x="302.75" y="991.4536"/><text fill="#000000" font-family="sans-serif" font-size="12" lengthAdjust="spacing" textLength="82" x="312.75" y="1012.5923">token = X PID</text><polygon fill="#F1F1F1" points="353.75,809.3247,365.75,821.3247,353.75,833.3247,341.75,821.3247,353.75,809.3247" style="stroke:#181818;stroke-width:0.5;"/><polygon fill="#F1F1F1" points="321.75,1073.4224,385.75,1073.4224,397.75,1085.4224,385.75,1097.4224,321.75,1097.4224,309.75,1085.4224,321.75,1073.4224" style="stroke:#181818;stroke-width:0.5;"/><text fill="#000000" font-family="sans-serif" font-size="11" lengthAdjust="spacing" textLength="64" x="321.75" y="1089.2305">start_game</text><text fill="#000000" font-family="sans-serif" font-size="11" lengthAdjust="spacing" textLength="7" x="397.75" y="1082.8281">1</text><rect fill="#555555" height="6" rx="2.5" ry="2.5" style="stroke:#555555;stroke-width:1.0;" width="354" x="91.25" y="1143.6138"/><rect fill="#F1F1F1" height="33.9688" rx="12.5" ry="12.5" style="stroke:#181818;stroke-width:0.5;" width="81" x="227.75" y="1213.6138"/><text fill="#000000" font-family="sans-serif" font-size="12" lengthAdjust="spacing" textLength="61" x="237.75" y="1234.7524">Read vote</text><polygon fill="#F1F1F1" points="268.25,1169.6138,280.25,1181.6138,268.25,1193.6138,256.25,1181.6138,268.25,1169.6138" style="stroke:#181818;stroke-width:0.5;"/><polygon fill="#F1F1F1" points="244.25,1267.5825,292.25,1267.5825,304.25,1279.5825,292.25,1291.5825,244.25,1291.5825,232.25,1279.5825,244.25,1267.5825" style="stroke:#181818;stroke-width:0.5;"/><text fill="#000000" font-family="sans-serif" font-size="11" lengthAdjust="spacing" textLength="48" x="244.25" y="1283.3906">nbr vote</text><text fill="#000000" font-family="sans-serif" font-size="11" lengthAdjust="spacing" textLength="77" x="304.25" y="1276.9883">&lt; nbr players</text><rect fill="#F1F1F1" height="33.9688" rx="12.5" ry="12.5" style="stroke:#181818;stroke-width:0.5;" width="119" x="208.75" y="1332.9814"/><text fill="#000000" font-family="sans-serif" font-size="12" lengthAdjust="spacing" textLength="99" x="218.75" y="1354.1201">Ask word to spy</text><rect fill="#F1F1F1" height="33.9688" rx="12.5" ry="12.5" style="stroke:#181818;stroke-width:0.5;" width="56" x="240.25" y="1386.9502"/><text fill="#000000" font-family="sans-serif" font-size="12" lengthAdjust="spacing" textLength="36" x="250.25" y="1408.0889">Result</text><ellipse cx="268.25" cy="1450.9189" fill="none" rx="10" ry="10" style="stroke:#222222;stroke-width:1.5;"/><line style="stroke:#222222;stroke-width:2.5;" x1="262.0628" x2="274.4372" y1="1444.7318" y2="1457.1061"/><line style="stroke:#222222;stroke-width:2.5;" x1="274.4372" x2="262.0628" y1="1444.7318" y2="1457.1061"/><line style="stroke:#181818;stroke-width:1.0;" x1="177" x2="177" y1="273.875" y2="308.875"/><polygon fill="#181818" points="173,298.875,177,308.875,181,298.875,177,302.875" style="stroke:#181818;stroke-width:1.0;"/><line style="stroke:#181818;stroke-width:1.0;" x1="85" x2="75" y1="217.9063" y2="217.9063"/><line style="stroke:#181818;stroke-width:1.0;" x1="75" x2="75" y1="217.9063" y2="239.9063"/><polygon fill="#181818" points="71,229.9063,75,239.9063,79,229.9063,75,233.9063" style="stroke:#181818;stroke-width:1.0;"/><line style="stroke:#181818;stroke-width:1.0;" x1="167" x2="177" y1="217.9063" y2="217.9063"/><line style="stroke:#181818;stroke-width:1.0;" x1="177" x2="177" y1="217.9063" y2="239.9063"/><polygon fill="#181818" points="173,229.9063,177,239.9063,181,229.9063,177,233.9063" style="stroke:#181818;stroke-width:1.0;"/><line style="stroke:#181818;stroke-width:1.0;" x1="75" x2="75" y1="287.8438" y2="334.875"/><line style="stroke:#181818;stroke-width:1.0;" x1="75" x2="126" y1="334.875" y2="334.875"/><line style="stroke:#181818;stroke-width:1.0;" x1="126" x2="126" y1="334.875" y2="418.6641"/><polygon fill="#181818" points="122,408.6641,126,418.6641,130,408.6641,126,412.6641" style="stroke:#181818;stroke-width:1.0;"/><line style="stroke:#181818;stroke-width:1.0;" x1="126" x2="126" y1="177.4219" y2="205.9063"/><polygon fill="#181818" points="122,195.9063,126,205.9063,130,195.9063,126,199.9063" style="stroke:#181818;stroke-width:1.0;"/><line style="stroke:#181818;stroke-width:1.0;" x1="366.5" x2="366.5" y1="168.9375" y2="197.4219"/><polygon fill="#181818" points="362.5,187.4219,366.5,197.4219,370.5,187.4219,366.5,191.4219" style="stroke:#181818;stroke-width:1.0;"/><line style="stroke:#181818;stroke-width:1.0;" x1="296" x2="296" y1="267.8906" y2="287.8906"/><polygon fill="#181818" points="292,277.8906,296,287.8906,300,277.8906,296,281.8906" style="stroke:#181818;stroke-width:1.0;"/><line style="stroke:#181818;stroke-width:1.0;" x1="429" x2="429" y1="267.8906" y2="287.8906"/><polygon fill="#181818" points="425,277.8906,429,287.8906,433,277.8906,429,281.8906" style="stroke:#181818;stroke-width:1.0;"/><line style="stroke:#181818;stroke-width:1.0;" x1="296" x2="296" y1="321.8594" y2="341.8594"/><polygon fill="#181818" points="292,331.8594,296,341.8594,300,331.8594,296,335.8594" style="stroke:#181818;stroke-width:1.0;"/><line style="stroke:#181818;stroke-width:1.0;" x1="429" x2="429" y1="321.8594" y2="341.8594"/><polygon fill="#181818" points="425,331.8594,429,341.8594,433,331.8594,429,335.8594" style="stroke:#181818;stroke-width:1.0;"/><line style="stroke:#181818;stroke-width:1.0;" x1="366.5" x2="366.5" y1="231.3906" y2="266.3906"/><polygon fill="#181818" points="362.5,256.3906,366.5,266.3906,370.5,256.3906,366.5,260.3906" style="stroke:#181818;stroke-width:1.0;"/><line style="stroke:#181818;stroke-width:1.0;" x1="366.5" x2="366.5" y1="114.9688" y2="134.9688"/><polygon fill="#181818" points="362.5,124.9688,366.5,134.9688,370.5,124.9688,366.5,128.9688" style="stroke:#181818;stroke-width:1.0;"/><line style="stroke:#181818;stroke-width:1.0;" x1="410.5" x2="499.5" y1="373.8594" y2="373.8594"/><polygon fill="#181818" points="495.5,245.9063,499.5,235.9063,503.5,245.9063,499.5,241.9063" style="stroke:#181818;stroke-width:1.0;"/><line style="stroke:#181818;stroke-width:1.0;" x1="499.5" x2="499.5" y1="102.9688" y2="373.8594"/><line style="stroke:#181818;stroke-width:1.0;" x1="499.5" x2="378.5" y1="102.9688" y2="102.9688"/><polygon fill="#181818" points="388.5,98.9688,378.5,102.9688,388.5,106.9688,384.5,102.9688" style="stroke:#181818;stroke-width:1.0;"/><line style="stroke:#181818;stroke-width:1.0;" x1="366.5" x2="366.5" y1="343.3594" y2="361.8594"/><polygon fill="#181818" points="362.5,351.8594,366.5,361.8594,370.5,351.8594,366.5,355.8594" style="stroke:#181818;stroke-width:1.0;"/><line style="stroke:#181818;stroke-width:1.0;" x1="126" x2="126" y1="70.9688" y2="143.4531"/><polygon fill="#181818" points="122,133.4531,126,143.4531,130,133.4531,126,137.4531" style="stroke:#181818;stroke-width:1.0;"/><line style="stroke:#181818;stroke-width:1.0;" x1="366.5" x2="366.5" y1="70.9688" y2="90.9688"/><polygon fill="#181818" points="362.5,80.9688,366.5,90.9688,370.5,80.9688,366.5,84.9688" style="stroke:#181818;stroke-width:1.0;"/><line style="stroke:#181818;stroke-width:1.0;" x1="366.5" x2="366.5" y1="385.8594" y2="418.6641"/><polygon fill="#181818" points="362.5,408.6641,366.5,418.6641,370.5,408.6641,366.5,412.6641" style="stroke:#181818;stroke-width:1.0;"/><text fill="#000000" font-family="sans-serif" font-size="11" lengthAdjust="spacing" textLength="7" x="370.5" y="406.0698">1</text><line style="stroke:#181818;stroke-width:1.0;" x1="268.25" x2="268.25" y1="44.9688" y2="64.9688"/><polygon fill="#181818" points="264.25,54.9688,268.25,64.9688,272.25,54.9688,268.25,58.9688" style="stroke:#181818;stroke-width:1.0;"/><line style="stroke:#181818;stroke-width:1.0;" x1="268.25" x2="268.25" y1="424.6641" y2="444.6641"/><polygon fill="#181818" points="264.25,434.6641,268.25,444.6641,272.25,434.6641,268.25,438.6641" style="stroke:#181818;stroke-width:1.0;"/><line style="stroke:#181818;stroke-width:1.0;" x1="268.25" x2="268.25" y1="478.6328" y2="498.6328"/><polygon fill="#181818" points="264.25,488.6328,268.25,498.6328,272.25,488.6328,268.25,492.6328" style="stroke:#181818;stroke-width:1.0;"/><line style="stroke:#181818;stroke-width:1.0;" x1="268.25" x2="268.25" y1="576.6016" y2="596.6016"/><polygon fill="#181818" points="264.25,586.6016,268.25,596.6016,272.25,586.6016,268.25,590.6016" style="stroke:#181818;stroke-width:1.0;"/><line style="stroke:#181818;stroke-width:1.0;" x1="300.75" x2="343.75" y1="662.5703" y2="662.5703"/><polygon fill="#181818" points="339.75,623.5859,343.75,613.5859,347.75,623.5859,343.75,619.5859" style="stroke:#181818;stroke-width:1.0;"/><line style="stroke:#181818;stroke-width:1.0;" x1="343.75" x2="343.75" y1="564.6016" y2="662.5703"/><line style="stroke:#181818;stroke-width:1.0;" x1="343.75" x2="280.25" y1="564.6016" y2="564.6016"/><polygon fill="#181818" points="290.25,560.6016,280.25,564.6016,290.25,568.6016,286.25,564.6016" style="stroke:#181818;stroke-width:1.0;"/><line style="stroke:#181818;stroke-width:1.0;" x1="268.25" x2="268.25" y1="630.5703" y2="650.5703"/><polygon fill="#181818" points="264.25,640.5703,268.25,650.5703,272.25,640.5703,268.25,644.5703" style="stroke:#181818;stroke-width:1.0;"/><line style="stroke:#181818;stroke-width:1.0;" x1="268.25" x2="268.25" y1="532.6016" y2="552.6016"/><polygon fill="#181818" points="264.25,542.6016,268.25,552.6016,272.25,542.6016,268.25,546.6016" style="stroke:#181818;stroke-width:1.0;"/><line style="stroke:#181818;stroke-width:1.0;" x1="268.25" x2="268.25" y1="674.5703" y2="715.9692"/><polygon fill="#181818" points="264.25,705.9692,268.25,715.9692,272.25,705.9692,268.25,709.9692" style="stroke:#181818;stroke-width:1.0;"/><text fill="#000000" font-family="sans-serif" font-size="11" lengthAdjust="spacing" textLength="55" x="272.25" y="695.875">is not spy</text><line style="stroke:#181818;stroke-width:1.0;" x1="176.75" x2="176.75" y1="877.3247" y2="923.7114"/><polygon fill="#181818" points="172.75,913.7114,176.75,923.7114,180.75,913.7114,176.75,917.7114" style="stroke:#181818;stroke-width:1.0;"/><line style="stroke:#181818;stroke-width:1.0;" x1="211.75" x2="260.25" y1="1003.0669" y2="1003.0669"/><polygon fill="#181818" points="256.25,950.6958,260.25,940.6958,264.25,950.6958,260.25,946.6958" style="stroke:#181818;stroke-width:1.0;"/><line style="stroke:#181818;stroke-width:1.0;" x1="260.25" x2="260.25" y1="865.3247" y2="1003.0669"/><line style="stroke:#181818;stroke-width:1.0;" x1="260.25" x2="188.75" y1="865.3247" y2="865.3247"/><polygon fill="#181818" points="198.75,861.3247,188.75,865.3247,198.75,869.3247,194.75,865.3247" style="stroke:#181818;stroke-width:1.0;"/><line style="stroke:#181818;stroke-width:1.0;" x1="176.75" x2="176.75" y1="957.6802" y2="991.0669"/><polygon fill="#181818" points="172.75,981.0669,176.75,991.0669,180.75,981.0669,176.75,985.0669" style="stroke:#181818;stroke-width:1.0;"/><line style="stroke:#181818;stroke-width:1.0;" x1="176.75" x2="176.75" y1="829.9067" y2="853.3247"/><polygon fill="#181818" points="172.75,843.3247,176.75,853.3247,180.75,843.3247,176.75,847.3247" style="stroke:#181818;stroke-width:1.0;"/><line style="stroke:#181818;stroke-width:1.0;" x1="176.75" x2="176.75" y1="1015.0669" y2="1062.8716"/><polygon fill="#181818" points="172.75,1052.8716,176.75,1062.8716,180.75,1052.8716,176.75,1056.8716" style="stroke:#181818;stroke-width:1.0;"/><text fill="#000000" font-family="sans-serif" font-size="11" lengthAdjust="spacing" textLength="39" x="180.75" y="1042.7773">&gt;timer</text><line style="stroke:#181818;stroke-width:1.0;" x1="353.75" x2="353.75" y1="903.7114" y2="937.0981"/><polygon fill="#181818" points="349.75,927.0981,353.75,937.0981,357.75,927.0981,353.75,931.0981" style="stroke:#181818;stroke-width:1.0;"/><line style="stroke:#181818;stroke-width:1.0;" x1="353.75" x2="353.75" y1="971.0669" y2="991.4536"/><polygon fill="#181818" points="349.75,981.4536,353.75,991.4536,357.75,981.4536,353.75,985.4536" style="stroke:#181818;stroke-width:1.0;"/><line style="stroke:#181818;stroke-width:1.0;" x1="353.75" x2="353.75" y1="833.3247" y2="869.7427"/><polygon fill="#181818" points="349.75,859.7427,353.75,869.7427,357.75,859.7427,353.75,863.7427" style="stroke:#181818;stroke-width:1.0;"/><line style="stroke:#181818;stroke-width:1.0;" x1="397.75" x2="419.25" y1="1085.4224" y2="1085.4224"/><polygon fill="#181818" points="415.25,964.0825,419.25,954.0825,423.25,964.0825,419.25,960.0825" style="stroke:#181818;stroke-width:1.0;"/><line style="stroke:#181818;stroke-width:1.0;" x1="419.25" x2="419.25" y1="821.3247" y2="1085.4224"/><line style="stroke:#181818;stroke-width:1.0;" x1="419.25" x2="365.75" y1="821.3247" y2="821.3247"/><polygon fill="#181818" points="375.75,817.3247,365.75,821.3247,375.75,825.3247,371.75,821.3247" style="stroke:#181818;stroke-width:1.0;"/><line style="stroke:#181818;stroke-width:1.0;" x1="353.75" x2="353.75" y1="1025.4224" y2="1073.4224"/><polygon fill="#181818" points="349.75,1063.4224,353.75,1073.4224,357.75,1063.4224,353.75,1067.4224" style="stroke:#181818;stroke-width:1.0;"/><line style="stroke:#181818;stroke-width:1.0;" x1="176.75" x2="176.75" y1="775.938" y2="795.938"/><polygon fill="#181818" points="172.75,785.938,176.75,795.938,180.75,785.938,176.75,789.938" style="stroke:#181818;stroke-width:1.0;"/><line style="stroke:#181818;stroke-width:1.0;" x1="353.75" x2="353.75" y1="775.938" y2="809.3247"/><polygon fill="#181818" points="349.75,799.3247,353.75,809.3247,357.75,799.3247,353.75,803.3247" style="stroke:#181818;stroke-width:1.0;"/><line style="stroke:#181818;stroke-width:1.0;" x1="176.75" x2="176.75" y1="1110.8091" y2="1143.6138"/><polygon fill="#181818" points="172.75,1133.6138,176.75,1143.6138,180.75,1133.6138,176.75,1137.6138" style="stroke:#181818;stroke-width:1.0;"/><line style="stroke:#181818;stroke-width:1.0;" x1="353.75" x2="353.75" y1="1097.4224" y2="1143.6138"/><polygon fill="#181818" points="349.75,1133.6138,353.75,1143.6138,357.75,1133.6138,353.75,1137.6138" style="stroke:#181818;stroke-width:1.0;"/><text fill="#000000" font-family="sans-serif" font-size="11" lengthAdjust="spacing" textLength="7" x="357.75" y="1124.3262">0</text><line style="stroke:#181818;stroke-width:1.0;" x1="268.25" x2="268.25" y1="749.938" y2="769.938"/><polygon fill="#181818" points="264.25,759.938,268.25,769.938,272.25,759.938,268.25,763.938" style="stroke:#181818;stroke-width:1.0;"/><line style="stroke:#181818;stroke-width:1.0;" x1="268.25" x2="268.25" y1="1193.6138" y2="1213.6138"/><polygon fill="#181818" points="264.25,1203.6138,268.25,1213.6138,272.25,1203.6138,268.25,1207.6138" style="stroke:#181818;stroke-width:1.0;"/><line style="stroke:#181818;stroke-width:1.0;" x1="304.25" x2="320.75" y1="1279.5825" y2="1279.5825"/><polygon fill="#181818" points="316.75,1240.5981,320.75,1230.5981,324.75,1240.5981,320.75,1236.5981" style="stroke:#181818;stroke-width:1.0;"/><line style="stroke:#181818;stroke-width:1.0;" x1="320.75" x2="320.75" y1="1181.6138" y2="1279.5825"/><line style="stroke:#181818;stroke-width:1.0;" x1="320.75" x2="280.25" y1="1181.6138" y2="1181.6138"/><polygon fill="#181818" points="290.25,1177.6138,280.25,1181.6138,290.25,1185.6138,286.25,1181.6138" style="stroke:#181818;stroke-width:1.0;"/><line style="stroke:#181818;stroke-width:1.0;" x1="268.25" x2="268.25" y1="1247.5825" y2="1267.5825"/><polygon fill="#181818" points="264.25,1257.5825,268.25,1267.5825,272.25,1257.5825,268.25,1261.5825" style="stroke:#181818;stroke-width:1.0;"/><line style="stroke:#181818;stroke-width:1.0;" x1="268.25" x2="268.25" y1="1149.6138" y2="1169.6138"/><polygon fill="#181818" points="264.25,1159.6138,268.25,1169.6138,272.25,1159.6138,268.25,1163.6138" style="stroke:#181818;stroke-width:1.0;"/><line style="stroke:#181818;stroke-width:1.0;" x1="268.25" x2="268.25" y1="1291.5825" y2="1332.9814"/><polygon fill="#181818" points="264.25,1322.9814,268.25,1332.9814,272.25,1322.9814,268.25,1326.9814" style="stroke:#181818;stroke-width:1.0;"/><text fill="#000000" font-family="sans-serif" font-size="11" lengthAdjust="spacing" textLength="77" x="272.25" y="1312.8872">&gt; nbr players</text><line style="stroke:#181818;stroke-width:1.0;" x1="268.25" x2="268.25" y1="1366.9502" y2="1386.9502"/><polygon fill="#181818" points="264.25,1376.9502,268.25,1386.9502,272.25,1376.9502,268.25,1380.9502" style="stroke:#181818;stroke-width:1.0;"/><line style="stroke:#181818;stroke-width:1.0;" x1="268.25" x2="268.25" y1="1420.9189" y2="1440.9189"/><polygon fill="#181818" points="264.25,1430.9189,268.25,1440.9189,272.25,1430.9189,268.25,1434.9189" style="stroke:#181818;stroke-width:1.0;"/><!--MD5=[40510ad477bf1dc41435fabda56b62d4]
@startuml
:Create server pipe/config file;
fork
    :Menu;
    if (User input) then (1)
        :SIGUSR1\nstart_game=1;
    else (2)
        :Kill;
        end
    endif
fork again
    repeat
    :Read server pipe;
    :handleMessage;
    split
        :CONNECTION;
    split again
        :DECONNECTION;
    end split
    repeat while (start_game) is (0)
    ->1;
end fork
:Chose spy;
:Chose word;
repeat
    :Chose first player;
repeat while (chosen) is (is spy)
->is not spy;
:token=first player PID;
fork
:Start timer : init;
repeat
:elapsed = time - init;
repeat while (elapsed) is (< timer)
->>timer;
:SIGUSR2\nstart_game=0;
fork again
repeat
:token ask to X;
:X answer;
:token = X PID;
repeat while (start_game) is (1)
->0;
end fork
repeat
:Read vote;
repeat while (nbr vote) is (< nbr players)
->> nbr players;
:Ask word to spy;
:Result;
end
@enduml

PlantUML version 1.2022.10beta2(Unknown compile time)
(GPL source distribution)
Java Runtime: Java(TM) SE Runtime Environment
JVM: Java HotSpot(TM) 64-Bit Server VM
Default Encoding: UTF-8
Language: en
Country: US
--></g></svg>