<?xml version="1.0" encoding="UTF-8" standalone="no"?><svg xmlns="http://www.w3.org/2000/svg" xmlns:xlink="http://www.w3.org/1999/xlink" contentStyleType="text/css" height="634px" preserveAspectRatio="none" style="width:416px;height:634px;background:#FFFFFF;" version="1.1" viewBox="0 0 416 634" width="416px" zoomAndPan="magnify"><defs/><g><rect fill="none" height="133.6641" style="stroke:#000000;stroke-width:1.5;" width="292" x="38" y="315.2266"/><line style="stroke:#181818;stroke-width:0.5;stroke-dasharray:5.0,5.0;" x1="21" x2="21" y1="81.2969" y2="553.2891"/><line style="stroke:#181818;stroke-width:0.5;stroke-dasharray:5.0,5.0;" x1="99" x2="99" y1="81.2969" y2="553.2891"/><line style="stroke:#181818;stroke-width:0.5;stroke-dasharray:5.0,5.0;" x1="184" x2="184" y1="81.2969" y2="553.2891"/><line style="stroke:#181818;stroke-width:0.5;stroke-dasharray:5.0,5.0;" x1="293" x2="293" y1="81.2969" y2="553.2891"/><line style="stroke:#181818;stroke-width:0.5;stroke-dasharray:5.0,5.0;" x1="378.5" x2="378.5" y1="81.2969" y2="553.2891"/><text fill="#000000" font-family="sans-serif" font-size="14" lengthAdjust="spacing" textLength="27" x="5" y="77.9951">Spy</text><ellipse cx="21.5" cy="13.5" fill="#E2E2F0" rx="8" ry="8" style="stroke:#181818;stroke-width:0.5;"/><path d="M21.5,21.5 L21.5,48.5 M8.5,29.5 L34.5,29.5 M21.5,48.5 L8.5,63.5 M21.5,48.5 L34.5,63.5 " fill="none" style="stroke:#181818;stroke-width:0.5;"/><text fill="#000000" font-family="sans-serif" font-size="14" lengthAdjust="spacing" textLength="27" x="5" y="565.2842">Spy</text><ellipse cx="21.5" cy="577.0859" fill="#E2E2F0" rx="8" ry="8" style="stroke:#181818;stroke-width:0.5;"/><path d="M21.5,585.0859 L21.5,612.0859 M8.5,593.0859 L34.5,593.0859 M21.5,612.0859 L8.5,627.0859 M21.5,612.0859 L34.5,627.0859 " fill="none" style="stroke:#181818;stroke-width:0.5;"/><text fill="#000000" font-family="sans-serif" font-size="14" lengthAdjust="spacing" textLength="96" x="48" y="77.9951">Other Clients</text><ellipse cx="99" cy="13.5" fill="#E2E2F0" rx="8" ry="8" style="stroke:#181818;stroke-width:0.5;"/><path d="M99,21.5 L99,48.5 M86,29.5 L112,29.5 M99,48.5 L86,63.5 M99,48.5 L112,63.5 " fill="none" style="stroke:#181818;stroke-width:0.5;"/><text fill="#000000" font-family="sans-serif" font-size="14" lengthAdjust="spacing" textLength="96" x="48" y="565.2842">Other Clients</text><ellipse cx="99" cy="577.0859" fill="#E2E2F0" rx="8" ry="8" style="stroke:#181818;stroke-width:0.5;"/><path d="M99,585.0859 L99,612.0859 M86,593.0859 L112,593.0859 M99,612.0859 L86,627.0859 M99,612.0859 L112,627.0859 " fill="none" style="stroke:#181818;stroke-width:0.5;"/><text fill="#000000" font-family="sans-serif" font-size="14" lengthAdjust="spacing" textLength="43" x="160" y="77.9951">Client</text><ellipse cx="184.5" cy="13.5" fill="#E2E2F0" rx="8" ry="8" style="stroke:#181818;stroke-width:0.5;"/><path d="M184.5,21.5 L184.5,48.5 M171.5,29.5 L197.5,29.5 M184.5,48.5 L171.5,63.5 M184.5,48.5 L197.5,63.5 " fill="none" style="stroke:#181818;stroke-width:0.5;"/><text fill="#000000" font-family="sans-serif" font-size="14" lengthAdjust="spacing" textLength="43" x="160" y="565.2842">Client</text><ellipse cx="184.5" cy="577.0859" fill="#E2E2F0" rx="8" ry="8" style="stroke:#181818;stroke-width:0.5;"/><path d="M184.5,585.0859 L184.5,612.0859 M171.5,593.0859 L197.5,593.0859 M184.5,612.0859 L171.5,627.0859 M184.5,612.0859 L197.5,627.0859 " fill="none" style="stroke:#181818;stroke-width:0.5;"/><text fill="#000000" font-family="sans-serif" font-size="14" lengthAdjust="spacing" textLength="47" x="267" y="77.9951">Server</text><ellipse cx="293.5" cy="49" fill="#E2E2F0" rx="12" ry="12" style="stroke:#181818;stroke-width:0.5;"/><line style="stroke:#181818;stroke-width:0.5;" x1="281.5" x2="305.5" y1="63" y2="63"/><text fill="#000000" font-family="sans-serif" font-size="14" lengthAdjust="spacing" textLength="47" x="267" y="565.2842">Server</text><ellipse cx="293.5" cy="584.5859" fill="#E2E2F0" rx="12" ry="12" style="stroke:#181818;stroke-width:0.5;"/><line style="stroke:#181818;stroke-width:0.5;" x1="281.5" x2="305.5" y1="598.5859" y2="598.5859"/><text fill="#000000" font-family="sans-serif" font-size="14" lengthAdjust="spacing" textLength="68" x="341.5" y="77.9951">Database</text><path d="M360.5,29 C360.5,19 378.5,19 378.5,19 C378.5,19 396.5,19 396.5,29 L396.5,55 C396.5,65 378.5,65 378.5,65 C378.5,65 360.5,65 360.5,55 L360.5,29 " fill="#E2E2F0" style="stroke:#181818;stroke-width:1.5;"/><path d="M360.5,29 C360.5,39 378.5,39 378.5,39 C378.5,39 396.5,39 396.5,29 " fill="none" style="stroke:#181818;stroke-width:1.5;"/><text fill="#000000" font-family="sans-serif" font-size="14" lengthAdjust="spacing" textLength="68" x="341.5" y="565.2842">Database</text><path d="M360.5,578.5859 C360.5,568.5859 378.5,568.5859 378.5,568.5859 C378.5,568.5859 396.5,568.5859 396.5,578.5859 L396.5,604.5859 C396.5,614.5859 378.5,614.5859 378.5,614.5859 C378.5,614.5859 360.5,614.5859 360.5,604.5859 L360.5,578.5859 " fill="#E2E2F0" style="stroke:#181818;stroke-width:1.5;"/><path d="M360.5,578.5859 C360.5,588.5859 378.5,588.5859 378.5,588.5859 C378.5,588.5859 396.5,588.5859 396.5,578.5859 " fill="none" style="stroke:#181818;stroke-width:1.5;"/><polygon fill="#181818" points="281.5,108.4297,291.5,112.4297,281.5,116.4297,285.5,112.4297" style="stroke:#181818;stroke-width:1.0;"/><line style="stroke:#181818;stroke-width:1.0;" x1="184.5" x2="287.5" y1="112.4297" y2="112.4297"/><text fill="#000000" font-family="sans-serif" font-size="13" lengthAdjust="spacing" textLength="84" x="191.5" y="107.3638">CONNECTION</text><polygon fill="#181818" points="281.5,137.5625,291.5,141.5625,281.5,145.5625,285.5,141.5625" style="stroke:#181818;stroke-width:1.0;"/><line style="stroke:#181818;stroke-width:1.0;" x1="99" x2="287.5" y1="141.5625" y2="141.5625"/><text fill="#000000" font-family="sans-serif" font-size="13" lengthAdjust="spacing" textLength="84" x="106" y="136.4966">CONNECTION</text><line style="stroke:#181818;stroke-width:1.0;" x1="293.5" x2="335.5" y1="170.6953" y2="170.6953"/><line style="stroke:#181818;stroke-width:1.0;" x1="335.5" x2="335.5" y1="170.6953" y2="183.6953"/><line style="stroke:#181818;stroke-width:1.0;" x1="294.5" x2="335.5" y1="183.6953" y2="183.6953"/><polygon fill="#181818" points="304.5,179.6953,294.5,183.6953,304.5,187.6953,300.5,183.6953" style="stroke:#181818;stroke-width:1.0;"/><text fill="#000000" font-family="sans-serif" font-size="13" lengthAdjust="spacing" textLength="42" x="300.5" y="165.6294">START</text><polygon fill="#181818" points="304.5,208.8281,294.5,212.8281,304.5,216.8281,300.5,212.8281" style="stroke:#181818;stroke-width:1.0;"/><polygon fill="#181818" points="366.5,208.8281,376.5,212.8281,366.5,216.8281,370.5,212.8281" style="stroke:#181818;stroke-width:1.0;"/><line style="stroke:#181818;stroke-width:1.0;" x1="298.5" x2="372.5" y1="212.8281" y2="212.8281"/><text fill="#000000" font-family="sans-serif" font-size="13" lengthAdjust="spacing" textLength="61" x="310.5" y="207.7622">pick word</text><polygon fill="#181818" points="195.5,237.9609,185.5,241.9609,195.5,245.9609,191.5,241.9609" style="stroke:#181818;stroke-width:1.0;"/><line style="stroke:#181818;stroke-width:1.0;" x1="189.5" x2="292.5" y1="241.9609" y2="241.9609"/><text fill="#000000" font-family="sans-serif" font-size="13" lengthAdjust="spacing" textLength="67" x="201.5" y="236.895">send word</text><polygon fill="#181818" points="110,267.0938,100,271.0938,110,275.0938,106,271.0938" style="stroke:#181818;stroke-width:1.0;"/><line style="stroke:#181818;stroke-width:1.0;" x1="104" x2="292.5" y1="271.0938" y2="271.0938"/><text fill="#000000" font-family="sans-serif" font-size="13" lengthAdjust="spacing" textLength="67" x="116" y="266.0278">send word</text><polygon fill="#181818" points="32.5,296.2266,22.5,300.2266,32.5,304.2266,28.5,300.2266" style="stroke:#181818;stroke-width:1.0;"/><line style="stroke:#181818;stroke-width:1.0;" x1="26.5" x2="292.5" y1="300.2266" y2="300.2266"/><text fill="#000000" font-family="sans-serif" font-size="13" lengthAdjust="spacing" textLength="76" x="38.5" y="295.1606">you are spy</text><path d="M38,315.2266 L116,315.2266 L116,322.3594 L106,332.3594 L38,332.3594 L38,315.2266 " fill="#EEEEEE" style="stroke:#000000;stroke-width:1.5;"/><rect fill="none" height="133.6641" style="stroke:#000000;stroke-width:1.5;" width="292" x="38" y="315.2266"/><text fill="#000000" font-family="sans-serif" font-size="13" font-weight="bold" lengthAdjust="spacing" textLength="33" x="53" y="328.2935">loop</text><text fill="#000000" font-family="sans-serif" font-size="11" font-weight="bold" lengthAdjust="spacing" textLength="140" x="131" y="327.437">[until timer finished]</text><polygon fill="#181818" points="195.5,349.4922,185.5,353.4922,195.5,357.4922,191.5,353.4922" style="stroke:#181818;stroke-width:1.0;"/><line style="stroke:#181818;stroke-width:1.0;" x1="189.5" x2="292.5" y1="353.4922" y2="353.4922"/><text fill="#000000" font-family="sans-serif" font-size="13" lengthAdjust="spacing" textLength="62" x="201.5" y="348.4263">player list</text><polygon fill="#181818" points="281.5,378.625,291.5,382.625,281.5,386.625,285.5,382.625" style="stroke:#181818;stroke-width:1.0;"/><line style="stroke:#181818;stroke-width:1.0;" x1="184.5" x2="287.5" y1="382.625" y2="382.625"/><text fill="#000000" font-family="sans-serif" font-size="13" lengthAdjust="spacing" textLength="85" x="191.5" y="377.5591">question to X</text><polygon fill="#181818" points="110,407.7578,100,411.7578,110,415.7578,106,411.7578" style="stroke:#181818;stroke-width:1.0;"/><line style="stroke:#181818;stroke-width:1.0;" x1="104" x2="292.5" y1="411.7578" y2="411.7578"/><text fill="#000000" font-family="sans-serif" font-size="13" lengthAdjust="spacing" textLength="85" x="116" y="406.6919">question to X</text><polygon fill="#181818" points="281.5,436.8906,291.5,440.8906,281.5,444.8906,285.5,440.8906" style="stroke:#181818;stroke-width:1.0;"/><line style="stroke:#181818;stroke-width:1.0;" x1="99" x2="287.5" y1="440.8906" y2="440.8906"/><text fill="#000000" font-family="sans-serif" font-size="13" lengthAdjust="spacing" textLength="60" x="106" y="435.8247">X answer</text><polygon fill="#181818" points="195.5,473.0234,185.5,477.0234,195.5,481.0234,191.5,477.0234" style="stroke:#181818;stroke-width:1.0;"/><line style="stroke:#181818;stroke-width:1.0;" x1="189.5" x2="292.5" y1="477.0234" y2="477.0234"/><text fill="#000000" font-family="sans-serif" font-size="13" lengthAdjust="spacing" textLength="35" x="201.5" y="471.9575">VOTE</text><polygon fill="#181818" points="281.5,502.1563,291.5,506.1563,281.5,510.1563,285.5,506.1563" style="stroke:#181818;stroke-width:1.0;"/><line style="stroke:#181818;stroke-width:1.0;" x1="184.5" x2="287.5" y1="506.1563" y2="506.1563"/><text fill="#000000" font-family="sans-serif" font-size="13" lengthAdjust="spacing" textLength="50" x="191.5" y="501.0903">voted X</text><polygon fill="#181818" points="32.5,531.2891,22.5,535.2891,32.5,539.2891,28.5,535.2891" style="stroke:#181818;stroke-width:1.0;"/><polygon fill="#181818" points="281.5,531.2891,291.5,535.2891,281.5,539.2891,285.5,535.2891" style="stroke:#181818;stroke-width:1.0;"/><line style="stroke:#181818;stroke-width:1.0;" x1="26.5" x2="287.5" y1="535.2891" y2="535.2891"/><text fill="#000000" font-family="sans-serif" font-size="13" lengthAdjust="spacing" textLength="58" x="38.5" y="530.2231">ask word</text><!--MD5=[d1ff1c4788604a7520308eb6f31bce42]
@startuml
actor Spy
actor "Other Clients" as Clients
actor Client
entity Server
database Database
Client -> Server : CONNECTION
Clients -> Server : CONNECTION
Server -> Server : START
Server <-> Database : pick word
Server -> Client : send word
Server -> Clients : send word
Server -> Spy : you are spy
loop until timer finished
    Server -> Client : player list
    Client -> Server : question to X
    Server -> Clients : question to X
    Clients -> Server : X answer
end
Server -> Client : VOTE
Client -> Server : voted X
Server <-> Spy : ask word
@enduml

PlantUML version 1.2022.10beta2(Unknown compile time)
(GPL source distribution)
Java Runtime: Java(TM) SE Runtime Environment
JVM: Java HotSpot(TM) 64-Bit Server VM
Default Encoding: UTF-8
Language: en
Country: US
--></g></svg>